<svg width="900" height="1200" viewBox="0 0 900 1200" fill="none" xmlns="http://www.w3.org/2000/svg">
  <rect width="900" height="1200" fill="#F3EBDD"/>
  <circle cx="450" cy="450" r="180" fill="#202631"/>
  <circle cx="450" cy="450" r="150" fill="#141923"/>
  <g fill="#28313F">
    <path d="M450 320a130 130 0 0 1 113 65l-113 56z"/>
    <path d="M580 535a130 130 0 0 1-65 113l-56-113z"/>
    <path d="M450 580a130 130 0 0 1-113-65l113-56z"/>
    <path d="M320 465a130 130 0 0 1 65-113l56 113z"/>
  </g>
  <circle cx="450" cy="450" r="40" fill="#C8A24A"/>
  <text x="450" y="780" text-anchor="middle" font-family="Arial, Helvetica, sans-serif" font-size="32" font-weight="700" letter-spacing="8" fill="#9D731E">URBANIQ PC</text>
  <text x="450" y="840" text-anchor="middle" font-family="Arial, Helvetica, sans-serif" font-size="58" font-weight="800" fill="#111827">REFRIGERACIÓN</text>
  <text x="450" y="888" text-anchor="middle" font-family="Arial, Helvetica, sans-serif" font-size="24" font-weight="700" letter-spacing="4" fill="#514B43">COOLING / VENTILACIÓN</text>
</svg>
